<svg width="94" height="32" viewBox="0 0 94 32" fill="none" xmlns="http://www.w3.org/2000/svg">
<path d="M8.824 24.384C7.18133 24.384 5.73067 24.1067 4.472 23.552C3.21333 22.976 2.22133 22.1653 1.496 21.12C0.770667 20.0533 0.397333 18.7627 0.376 17.248H4.696C4.73867 18.2933 5.112 19.1787 5.816 19.904C6.54133 20.608 7.53333 20.96 8.792 20.96C9.88 20.96 10.744 20.704 11.384 20.192C12.024 19.6587 12.344 18.9547 12.344 18.08C12.344 17.1627 12.056 16.448 11.48 15.936C10.9253 15.424 10.1787 15.008 9.24 14.688C8.30133 14.368 7.29867 14.0267 6.232 13.664C4.504 13.0667 3.18133 12.2987 2.264 11.36C1.368 10.4213 0.92 9.17333 0.92 7.616C0.898667 6.29333 1.208 5.16267 1.848 4.224C2.50933 3.264 3.40533 2.528 4.536 2.016C5.66667 1.48267 6.968 1.216 8.44 1.216C9.93333 1.216 11.2453 1.48267 12.376 2.016C13.528 2.54933 14.424 3.296 15.064 4.256C15.7253 5.216 16.0773 6.35733 16.12 7.68H11.736C11.7147 6.89067 11.4053 6.19733 10.808 5.6C10.232 4.98133 9.42133 4.672 8.376 4.672C7.48 4.65067 6.72267 4.87467 6.104 5.344C5.50667 5.792 5.208 6.45333 5.208 7.328C5.208 8.07467 5.44267 8.672 5.912 9.12C6.38133 9.54667 7.02133 9.90933 7.832 10.208C8.64267 10.5067 9.57067 10.8267 10.616 11.168C11.7253 11.552 12.7387 12 13.656 12.512C14.5733 13.024 15.3093 13.7067 15.864 14.56C16.4187 15.392 16.696 16.4693 16.696 17.792C16.696 18.9653 16.3973 20.0533 15.8 21.056C15.2027 22.0587 14.3173 22.8693 13.144 23.488C11.9707 24.0853 10.5307 24.384 8.824 24.384ZM24.6858 24.384C23.3204 24.384 22.2004 24.1707 21.3258 23.744C20.4511 23.296 19.8004 22.7093 19.3738 21.984C18.9471 21.2587 18.7338 20.4587 18.7338 19.584C18.7338 18.112 19.3098 16.9173 20.4618 16C21.6138 15.0827 23.3418 14.624 25.6458 14.624H29.6778V14.24C29.6778 13.152 29.3684 12.352 28.7498 11.84C28.1311 11.328 27.3631 11.072 26.4458 11.072C25.6138 11.072 24.8884 11.2747 24.2698 11.68C23.6511 12.064 23.2671 12.64 23.1178 13.408H19.1178C19.2244 12.256 19.6084 11.2533 20.2698 10.4C20.9524 9.54667 21.8271 8.896 22.8938 8.448C23.9604 7.97867 25.1551 7.744 26.4778 7.744C28.7391 7.744 30.5204 8.30933 31.8218 9.44C33.1231 10.5707 33.7738 12.1707 33.7738 14.24V24H30.2858L29.9018 21.44C29.4324 22.2933 28.7711 22.9973 27.9178 23.552C27.0858 24.1067 26.0084 24.384 24.6858 24.384ZM25.6138 21.184C26.7871 21.184 27.6938 20.8 28.3338 20.032C28.9951 19.264 29.4111 18.3147 29.5818 17.184H26.0938C25.0058 17.184 24.2271 17.3867 23.7578 17.792C23.2884 18.176 23.0538 18.656 23.0538 19.232C23.0538 19.8507 23.2884 20.3307 23.7578 20.672C24.2271 21.0133 24.8458 21.184 25.6138 21.184ZM42.1945 24.384C40.8292 24.384 39.7092 24.1707 38.8345 23.744C37.9598 23.296 37.3092 22.7093 36.8825 21.984C36.4558 21.2587 36.2425 20.4587 36.2425 19.584C36.2425 18.112 36.8185 16.9173 37.9705 16C39.1225 15.0827 40.8505 14.624 43.1545 14.624H47.1865V14.24C47.1865 13.152 46.8772 12.352 46.2585 11.84C45.6398 11.328 44.8718 11.072 43.9545 11.072C43.1225 11.072 42.3972 11.2747 41.7785 11.68C41.1598 12.064 40.7758 12.64 40.6265 13.408H36.6265C36.7332 12.256 37.1172 11.2533 37.7785 10.4C38.4612 9.54667 39.3358 8.896 40.4025 8.448C41.4692 7.97867 42.6638 7.744 43.9865 7.744C46.2478 7.744 48.0292 8.30933 49.3305 9.44C50.6318 10.5707 51.2825 12.1707 51.2825 14.24V24H47.7945L47.4105 21.44C46.9412 22.2933 46.2798 22.9973 45.4265 23.552C44.5945 24.1067 43.5172 24.384 42.1945 24.384ZM43.1225 21.184C44.2958 21.184 45.2025 20.8 45.8425 20.032C46.5038 19.264 46.9198 18.3147 47.0905 17.184H43.6025C42.5145 17.184 41.7358 17.3867 41.2665 17.792C40.7972 18.176 40.5625 18.656 40.5625 19.232C40.5625 19.8507 40.7972 20.3307 41.2665 20.672C41.7358 21.0133 42.3545 21.184 43.1225 21.184ZM60.7912 24.384C59.3832 24.384 58.1459 24.16 57.0792 23.712C56.0126 23.2427 55.1592 22.6027 54.5192 21.792C53.8792 20.9813 53.4952 20.0427 53.3672 18.976H57.4952C57.6232 19.5947 57.9646 20.128 58.5192 20.576C59.0952 21.0027 59.8312 21.216 60.7272 21.216C61.6232 21.216 62.2739 21.0347 62.6792 20.672C63.1059 20.3093 63.3192 19.8933 63.3192 19.424C63.3192 18.7413 63.0206 18.2827 62.4232 18.048C61.8259 17.792 60.9939 17.5467 59.9272 17.312C59.2446 17.1627 58.5512 16.9813 57.8472 16.768C57.1432 16.5547 56.4926 16.288 55.8952 15.968C55.3192 15.6267 54.8499 15.2 54.4872 14.688C54.1246 14.1547 53.9432 13.504 53.9432 12.736C53.9432 11.328 54.4979 10.144 55.6072 9.184C56.7379 8.224 58.3166 7.744 60.3432 7.744C62.2206 7.744 63.7139 8.18133 64.8232 9.056C65.9539 9.93067 66.6259 11.136 66.8392 12.672H62.9672C62.7326 11.4987 61.8472 10.912 60.3112 10.912C59.5432 10.912 58.9459 11.0613 58.5192 11.36C58.1139 11.6587 57.9112 12.032 57.9112 12.48C57.9112 12.9493 58.2206 13.3227 58.8392 13.6C59.4579 13.8773 60.2792 14.1333 61.3032 14.368C62.4126 14.624 63.4259 14.912 64.3432 15.232C65.2819 15.5307 66.0286 15.9893 66.5833 16.608C67.1379 17.2053 67.4152 18.0693 67.4152 19.2C67.4366 20.1813 67.1806 21.0667 66.6472 21.856C66.1139 22.6453 65.3459 23.264 64.3432 23.712C63.3406 24.16 62.1566 24.384 60.7912 24.384ZM70.0838 24V0.959999H74.1798V24H70.0838ZM79.389 31.04L83.069 22.944H82.109L75.933 8.128H80.381L84.829 19.296L89.469 8.128H93.821L83.741 31.04H79.389Z" fill="white"/>
</svg>
