<svg width="679" height="701" viewBox="0 0 679 701" fill="none" xmlns="http://www.w3.org/2000/svg">
<path opacity="0.03" d="M259.345 441.811L589.757 384V450.204L259.345 509L259.345 441.811Z" fill="#0097FE"/>
<g filter="url(#filter0_d_301_912)">
<rect x="108.727" y="160" width="339" height="412" rx="10" fill="white"/>
</g>
<path d="M207.501 206.513C206.033 206.513 204.75 206.179 203.653 205.512C202.555 204.845 201.703 203.918 201.095 202.731C200.487 201.53 200.182 200.136 200.182 198.549C200.182 196.947 200.494 195.538 201.117 194.322C201.755 193.091 202.652 192.135 203.809 191.452C204.98 190.755 206.367 190.407 207.969 190.407C209.793 190.407 211.306 190.844 212.507 191.719C213.708 192.594 214.487 193.803 214.843 195.346H211.661C211.424 194.619 210.994 194.055 210.371 193.655C209.748 193.24 208.947 193.032 207.969 193.032C206.411 193.032 205.21 193.529 204.365 194.522C203.519 195.501 203.097 196.851 203.097 198.571C203.097 200.292 203.512 201.626 204.342 202.575C205.188 203.51 206.33 203.977 207.768 203.977C209.177 203.977 210.238 203.599 210.95 202.842C211.676 202.071 212.114 201.063 212.262 199.817H208.325V197.681H215.132V206.246H212.507L212.284 204.199C211.78 204.941 211.15 205.512 210.393 205.912C209.637 206.313 208.673 206.513 207.501 206.513ZM217.388 206.246V190.229H220.236V206.246H217.388ZM227.995 206.513C226.927 206.513 225.963 206.268 225.103 205.779C224.258 205.29 223.583 204.615 223.079 203.755C222.589 202.88 222.345 201.871 222.345 200.729C222.345 199.587 222.597 198.586 223.101 197.726C223.605 196.851 224.28 196.169 225.125 195.679C225.986 195.19 226.95 194.945 228.017 194.945C229.07 194.945 230.02 195.19 230.865 195.679C231.725 196.169 232.4 196.851 232.889 197.726C233.394 198.586 233.646 199.587 233.646 200.729C233.646 201.871 233.394 202.88 232.889 203.755C232.4 204.615 231.725 205.29 230.865 205.779C230.005 206.268 229.048 206.513 227.995 206.513ZM227.995 204.044C228.737 204.044 229.382 203.769 229.931 203.221C230.479 202.657 230.754 201.827 230.754 200.729C230.754 199.632 230.479 198.808 229.931 198.26C229.382 197.696 228.744 197.414 228.017 197.414C227.261 197.414 226.608 197.696 226.06 198.26C225.526 198.808 225.259 199.632 225.259 200.729C225.259 201.827 225.526 202.657 226.06 203.221C226.608 203.769 227.254 204.044 227.995 204.044ZM242.287 206.513C241.456 206.513 240.73 206.357 240.107 206.046C239.484 205.734 238.98 205.297 238.594 204.733L238.283 206.246H235.747V190.229H238.594V196.792C238.95 196.302 239.417 195.872 239.996 195.501C240.589 195.13 241.353 194.945 242.287 194.945C243.325 194.945 244.252 195.197 245.068 195.701C245.883 196.206 246.529 196.895 247.003 197.77C247.478 198.645 247.715 199.639 247.715 200.751C247.715 201.864 247.478 202.857 247.003 203.732C246.529 204.592 245.883 205.275 245.068 205.779C244.252 206.268 243.325 206.513 242.287 206.513ZM241.686 204.021C242.591 204.021 243.34 203.717 243.933 203.109C244.526 202.501 244.823 201.715 244.823 200.751C244.823 199.787 244.526 198.994 243.933 198.371C243.34 197.748 242.591 197.437 241.686 197.437C240.767 197.437 240.01 197.748 239.417 198.371C238.839 198.979 238.55 199.765 238.55 200.729C238.55 201.693 238.839 202.487 239.417 203.109C240.01 203.717 240.767 204.021 241.686 204.021ZM253.618 206.513C252.669 206.513 251.89 206.365 251.282 206.068C250.674 205.757 250.222 205.349 249.925 204.845C249.628 204.34 249.48 203.784 249.48 203.176C249.48 202.153 249.881 201.322 250.681 200.685C251.482 200.047 252.684 199.728 254.285 199.728H257.088V199.461C257.088 198.705 256.873 198.149 256.443 197.793C256.013 197.437 255.479 197.259 254.841 197.259C254.263 197.259 253.759 197.4 253.329 197.681C252.899 197.948 252.632 198.349 252.528 198.883H249.747C249.821 198.082 250.088 197.385 250.548 196.792C251.023 196.198 251.631 195.746 252.372 195.434C253.114 195.108 253.944 194.945 254.864 194.945C256.436 194.945 257.674 195.338 258.579 196.124C259.483 196.91 259.936 198.022 259.936 199.461V206.246H257.511L257.244 204.466C256.918 205.06 256.458 205.549 255.865 205.935C255.286 206.32 254.537 206.513 253.618 206.513ZM254.263 204.288C255.079 204.288 255.709 204.021 256.154 203.488C256.614 202.954 256.903 202.294 257.022 201.508H254.597C253.84 201.508 253.299 201.649 252.973 201.93C252.647 202.197 252.483 202.531 252.483 202.931C252.483 203.362 252.647 203.695 252.973 203.933C253.299 204.17 253.729 204.288 254.263 204.288ZM262.208 206.246V190.229H265.056V206.246H262.208ZM277.76 206.513C276.618 206.513 275.609 206.32 274.734 205.935C273.859 205.534 273.17 204.971 272.665 204.244C272.161 203.502 271.902 202.605 271.887 201.552H274.89C274.92 202.279 275.179 202.894 275.669 203.399C276.173 203.888 276.863 204.133 277.738 204.133C278.494 204.133 279.095 203.955 279.539 203.599C279.984 203.228 280.207 202.739 280.207 202.131C280.207 201.493 280.007 200.996 279.606 200.64C279.221 200.284 278.702 199.995 278.049 199.772C277.396 199.55 276.699 199.313 275.958 199.061C274.757 198.645 273.837 198.111 273.199 197.459C272.576 196.806 272.265 195.939 272.265 194.856C272.25 193.937 272.465 193.151 272.91 192.498C273.37 191.831 273.993 191.319 274.779 190.963C275.565 190.592 276.47 190.407 277.493 190.407C278.531 190.407 279.443 190.592 280.229 190.963C281.03 191.334 281.653 191.853 282.098 192.52C282.558 193.188 282.802 193.981 282.832 194.901H279.784C279.769 194.352 279.554 193.87 279.139 193.455C278.739 193.025 278.175 192.809 277.448 192.809C276.825 192.795 276.299 192.95 275.869 193.277C275.454 193.588 275.246 194.048 275.246 194.656C275.246 195.175 275.409 195.59 275.735 195.902C276.062 196.198 276.507 196.45 277.07 196.658C277.634 196.866 278.279 197.088 279.006 197.325C279.777 197.592 280.481 197.904 281.119 198.26C281.757 198.616 282.268 199.09 282.654 199.683C283.04 200.262 283.232 201.011 283.232 201.93C283.232 202.746 283.025 203.502 282.609 204.199C282.194 204.896 281.579 205.46 280.763 205.89C279.947 206.305 278.946 206.513 277.76 206.513ZM290.121 206.246C288.965 206.246 288.038 205.964 287.341 205.401C286.644 204.837 286.295 203.836 286.295 202.398V197.592H284.404V195.212H286.295L286.629 192.253H289.143V195.212H292.124V197.592H289.143V202.42C289.143 202.954 289.254 203.324 289.476 203.532C289.714 203.725 290.114 203.821 290.678 203.821H292.057V206.246H290.121ZM297.928 206.513C296.978 206.513 296.2 206.365 295.592 206.068C294.984 205.757 294.531 205.349 294.235 204.845C293.938 204.34 293.79 203.784 293.79 203.176C293.79 202.153 294.19 201.322 294.991 200.685C295.792 200.047 296.993 199.728 298.595 199.728H301.398V199.461C301.398 198.705 301.183 198.149 300.753 197.793C300.323 197.437 299.789 197.259 299.151 197.259C298.573 197.259 298.068 197.4 297.638 197.681C297.208 197.948 296.941 198.349 296.838 198.883H294.057C294.131 198.082 294.398 197.385 294.858 196.792C295.332 196.198 295.94 195.746 296.682 195.434C297.423 195.108 298.254 194.945 299.173 194.945C300.745 194.945 301.984 195.338 302.888 196.124C303.793 196.91 304.245 198.022 304.245 199.461V206.246H301.821L301.554 204.466C301.227 205.06 300.768 205.549 300.174 205.935C299.596 206.32 298.847 206.513 297.928 206.513ZM298.573 204.288C299.388 204.288 300.019 204.021 300.464 203.488C300.923 202.954 301.213 202.294 301.331 201.508H298.906C298.15 201.508 297.609 201.649 297.282 201.93C296.956 202.197 296.793 202.531 296.793 202.931C296.793 203.362 296.956 203.695 297.282 203.933C297.609 204.17 298.039 204.288 298.573 204.288ZM311.282 206.246C310.125 206.246 309.198 205.964 308.501 205.401C307.804 204.837 307.456 203.836 307.456 202.398V197.592H305.565V195.212H307.456L307.79 192.253H310.303V195.212H313.284V197.592H310.303V202.42C310.303 202.954 310.415 203.324 310.637 203.532C310.874 203.725 311.275 203.821 311.838 203.821H313.218V206.246H311.282ZM316.819 193.499C316.3 193.499 315.87 193.343 315.529 193.032C315.203 192.72 315.04 192.327 315.04 191.853C315.04 191.378 315.203 190.993 315.529 190.696C315.87 190.385 316.3 190.229 316.819 190.229C317.338 190.229 317.761 190.385 318.087 190.696C318.428 190.993 318.599 191.378 318.599 191.853C318.599 192.327 318.428 192.72 318.087 193.032C317.761 193.343 317.338 193.499 316.819 193.499ZM315.395 206.246V195.212H318.243V206.246H315.395ZM325.331 206.513C324.352 206.513 323.492 206.357 322.75 206.046C322.009 205.72 321.415 205.275 320.97 204.711C320.525 204.148 320.258 203.495 320.17 202.753H323.039C323.128 203.184 323.366 203.554 323.751 203.866C324.152 204.162 324.663 204.311 325.286 204.311C325.909 204.311 326.361 204.185 326.643 203.933C326.94 203.68 327.088 203.391 327.088 203.065C327.088 202.59 326.88 202.271 326.465 202.108C326.05 201.93 325.471 201.76 324.73 201.597C324.255 201.493 323.773 201.367 323.284 201.218C322.795 201.07 322.342 200.885 321.927 200.662C321.527 200.425 321.2 200.128 320.948 199.772C320.696 199.402 320.57 198.949 320.57 198.415C320.57 197.437 320.956 196.614 321.727 195.946C322.513 195.279 323.61 194.945 325.019 194.945C326.324 194.945 327.362 195.249 328.134 195.857C328.92 196.465 329.387 197.303 329.535 198.371H326.843C326.68 197.555 326.065 197.147 324.997 197.147C324.463 197.147 324.048 197.251 323.751 197.459C323.469 197.667 323.328 197.926 323.328 198.238C323.328 198.564 323.543 198.823 323.974 199.016C324.404 199.209 324.975 199.387 325.687 199.55C326.458 199.728 327.162 199.928 327.8 200.151C328.452 200.358 328.972 200.677 329.357 201.107C329.743 201.523 329.936 202.123 329.936 202.909C329.95 203.591 329.772 204.207 329.402 204.756C329.031 205.304 328.497 205.734 327.8 206.046C327.103 206.357 326.28 206.513 325.331 206.513ZM336.582 206.246C335.425 206.246 334.498 205.964 333.801 205.401C333.104 204.837 332.756 203.836 332.756 202.398V197.592H330.865V195.212H332.756L333.089 192.253H335.603V195.212H338.584V197.592H335.603V202.42C335.603 202.954 335.714 203.324 335.937 203.532C336.174 203.725 336.574 203.821 337.138 203.821H338.517V206.246H336.582ZM342.119 193.499C341.6 193.499 341.17 193.343 340.829 193.032C340.502 192.72 340.339 192.327 340.339 191.853C340.339 191.378 340.502 190.993 340.829 190.696C341.17 190.385 341.6 190.229 342.119 190.229C342.638 190.229 343.061 190.385 343.387 190.696C343.728 190.993 343.899 191.378 343.899 191.853C343.899 192.327 343.728 192.72 343.387 193.032C343.061 193.343 342.638 193.499 342.119 193.499ZM340.695 206.246V195.212H343.543V206.246H340.695ZM351.476 206.513C350.349 206.513 349.355 206.268 348.495 205.779C347.635 205.29 346.952 204.607 346.448 203.732C345.959 202.857 345.714 201.856 345.714 200.729C345.714 199.602 345.959 198.601 346.448 197.726C346.952 196.851 347.635 196.169 348.495 195.679C349.355 195.19 350.349 194.945 351.476 194.945C352.885 194.945 354.071 195.316 355.035 196.057C355.999 196.784 356.615 197.793 356.881 199.083H353.878C353.73 198.549 353.433 198.134 352.988 197.837C352.558 197.526 352.047 197.37 351.453 197.37C350.667 197.37 350 197.667 349.451 198.26C348.903 198.853 348.628 199.676 348.628 200.729C348.628 201.782 348.903 202.605 349.451 203.198C350 203.792 350.667 204.088 351.453 204.088C352.047 204.088 352.558 203.94 352.988 203.643C353.433 203.347 353.73 202.924 353.878 202.375H356.881C356.615 203.621 355.999 204.622 355.035 205.378C354.071 206.135 352.885 206.513 351.476 206.513Z" fill="#03133D"/>
<path d="M278.572 464.696C263.657 464.696 248.889 461.758 235.11 456.051C221.331 450.343 208.811 441.978 198.265 431.432C187.719 420.886 179.354 408.366 173.646 394.587C167.939 380.808 165.001 366.04 165.001 351.125C165.001 336.211 167.939 321.443 173.646 307.664C179.354 293.885 187.719 281.365 198.265 270.819C208.811 260.273 221.331 251.908 235.11 246.201C248.889 240.493 263.657 237.555 278.572 237.555C293.486 237.555 308.254 240.493 322.033 246.201C335.812 251.908 348.332 260.273 358.878 270.819C369.424 281.365 377.791 293.885 383.496 307.664C389.205 321.443 392.143 336.211 392.143 351.125C392.143 366.04 389.205 380.808 383.496 394.587C377.787 408.366 369.424 420.886 358.878 431.432C348.332 441.978 335.812 450.343 322.033 456.051C308.254 461.758 293.486 464.696 278.572 464.696Z" stroke="#F0F3FF" stroke-width="7.41536" stroke-linecap="round"/>
<path d="M278.572 464.696C261.748 464.696 245.135 460.958 229.933 453.753C214.73 446.548 201.318 436.056 190.666 423.034C180.014 410.012 172.388 394.787 168.34 378.458C164.291 362.129 163.92 345.105 167.255 328.615C170.589 312.126 177.545 296.583 187.621 283.11C197.696 269.637 210.639 258.571 225.513 250.711C240.388 242.852 256.823 238.395 273.63 237.663C290.438 236.931 307.198 239.942 322.699 246.479" stroke="#0097FE" stroke-width="7.41536" stroke-linecap="round"/>
<path d="M278.24 438.026C266.747 438.026 255.367 435.762 244.75 431.364C234.132 426.966 224.485 420.52 216.358 412.394C208.232 404.267 201.786 394.62 197.388 384.002C192.991 373.385 190.727 362.005 190.727 350.513C190.727 339.021 192.991 327.64 197.388 317.023C201.786 306.405 208.232 296.758 216.358 288.632C224.485 280.506 234.132 274.059 244.75 269.661C255.367 265.264 266.747 263 278.24 263C289.732 263 301.112 265.264 311.729 269.661C322.347 274.059 331.994 280.506 340.12 288.632C348.247 296.758 354.693 306.405 359.09 317.023C363.488 327.641 365.751 339.02 365.751 350.513C365.751 362.005 363.488 373.385 359.09 384.002C354.693 394.62 348.247 404.267 340.12 412.394C331.994 420.52 322.347 426.966 311.729 431.364C301.112 435.762 289.732 438.026 278.24 438.026Z" stroke="#F0F3FF" stroke-width="7.41536" stroke-linecap="round"/>
<path d="M278.24 438.026C263.465 438.026 248.931 434.285 235.992 427.152C223.053 420.02 212.13 409.727 204.243 397.234C196.354 384.741 191.758 370.455 190.881 355.707C190.004 340.958 192.876 326.228 199.228 312.888C205.58 299.548 215.206 288.035 227.209 279.419C239.211 270.804 253.2 265.367 267.87 263.617C282.541 261.866 297.416 263.858 311.109 269.407C324.801 274.956 336.867 283.882 346.179 295.352" stroke="#AC5FE6" stroke-width="7.41536" stroke-linecap="round"/>
<path d="M279.017 415.581C270.574 415.581 262.214 413.918 254.414 410.687C246.614 407.456 239.527 402.72 233.557 396.751C227.587 390.781 222.851 383.694 219.62 375.893C216.39 368.093 214.727 359.733 214.727 351.29C214.727 342.848 216.39 334.488 219.62 326.688C222.851 318.888 227.587 311.8 233.557 305.83C239.527 299.86 246.614 295.125 254.414 291.894C262.214 288.663 270.574 287 279.017 287C287.46 287 295.82 288.663 303.62 291.894C311.42 295.125 318.507 299.86 324.477 305.83C330.447 311.8 335.183 318.888 338.414 326.688C341.645 334.488 343.308 342.848 343.308 351.29C343.308 359.733 341.645 368.093 338.414 375.893C335.183 383.694 330.447 390.781 324.477 396.751C318.507 402.72 311.42 407.456 303.62 410.687C295.82 413.918 287.46 415.581 279.017 415.581Z" stroke="#EDF1FC" stroke-width="7.41536" stroke-linecap="round"/>
<path d="M279.017 415.581C264.813 415.581 251.008 410.877 239.759 402.203C228.511 393.53 220.451 381.375 216.839 367.638C213.228 353.9 214.267 339.353 219.796 326.269C225.324 313.184 235.03 302.299 247.398 295.313C259.765 288.327 274.098 285.634 288.158 287.653C302.218 289.673 315.214 296.292 325.115 306.477C335.016 316.662 341.265 329.839 342.887 343.951C344.509 358.062 341.411 372.314 334.079 384.479" stroke="#FFAE00" stroke-width="7.41536" stroke-linecap="round"/>
<path d="M278.541 345.053C286.84 345.053 293.567 338.326 293.567 330.027C293.567 321.728 286.84 315 278.541 315C270.242 315 263.514 321.728 263.514 330.027C263.514 338.326 270.242 345.053 278.541 345.053Z" fill="#EBF7FF"/>
<path fill-rule="evenodd" clip-rule="evenodd" d="M285.006 326.092C285.005 326.039 284.989 325.988 284.975 325.937C284.964 325.894 284.959 325.85 284.94 325.811C284.923 325.773 284.894 325.741 284.869 325.706C284.838 325.661 284.81 325.615 284.77 325.578C284.763 325.572 284.76 325.563 284.753 325.557C284.726 325.534 284.694 325.526 284.665 325.507C284.62 325.478 284.576 325.449 284.526 325.429C284.476 325.412 284.427 325.407 284.376 325.4C284.341 325.394 284.309 325.378 284.271 325.378H280.564C280.155 325.378 279.823 325.71 279.823 326.119C279.823 326.529 280.155 326.861 280.564 326.861H282.659L279.668 330.351L276.498 328.449C276.184 328.26 275.781 328.329 275.547 328.61L271.84 333.058C271.578 333.372 271.621 333.84 271.935 334.102C272.074 334.217 272.242 334.274 272.409 334.274C272.622 334.274 272.833 334.183 272.979 334.007L276.28 330.047L279.441 331.945C279.752 332.131 280.151 332.065 280.386 331.791L283.53 328.123V329.826C283.53 330.235 283.861 330.567 284.271 330.567C284.681 330.567 285.012 330.235 285.012 329.826V326.119C285.012 326.11 285.007 326.102 285.006 326.092Z" fill="#231F20"/>
<mask id="mask0_301_912" style="mask-type:luminance" maskUnits="userSpaceOnUse" x="271" y="325" width="15" height="10">
<path fill-rule="evenodd" clip-rule="evenodd" d="M285.006 326.092C285.005 326.039 284.989 325.988 284.975 325.937C284.964 325.894 284.959 325.85 284.94 325.811C284.923 325.773 284.894 325.741 284.869 325.706C284.838 325.661 284.81 325.615 284.77 325.578C284.763 325.572 284.76 325.563 284.753 325.557C284.726 325.534 284.694 325.526 284.665 325.507C284.62 325.478 284.576 325.449 284.526 325.429C284.476 325.412 284.427 325.407 284.376 325.4C284.341 325.394 284.309 325.378 284.271 325.378H280.564C280.155 325.378 279.823 325.71 279.823 326.119C279.823 326.529 280.155 326.861 280.564 326.861H282.659L279.668 330.351L276.498 328.449C276.184 328.26 275.781 328.329 275.547 328.61L271.84 333.058C271.578 333.372 271.621 333.84 271.935 334.102C272.074 334.217 272.242 334.274 272.409 334.274C272.622 334.274 272.833 334.183 272.979 334.007L276.28 330.047L279.441 331.945C279.752 332.131 280.151 332.065 280.386 331.791L283.53 328.123V329.826C283.53 330.235 283.861 330.567 284.271 330.567C284.681 330.567 285.012 330.235 285.012 329.826V326.119C285.012 326.11 285.007 326.102 285.006 326.092Z" fill="white"/>
</mask>
<g mask="url(#mask0_301_912)">
<rect x="269.445" y="320.93" width="17.7913" height="17.7913" fill="#0097FE"/>
</g>
<path d="M252.309 359.452V353.839H250.45V353.225H254.915V353.839H253.056V359.452H252.309ZM255.102 359.452V355.04H255.778L255.84 355.885C255.976 355.594 256.184 355.363 256.463 355.191C256.741 355.019 257.085 354.933 257.495 354.933V355.716H257.29C257.029 355.716 256.789 355.763 256.569 355.858C256.35 355.947 256.175 356.101 256.045 356.321C255.914 356.54 255.849 356.842 255.849 357.228V359.452H255.102ZM259.623 359.559C259.255 359.559 258.95 359.496 258.707 359.372C258.464 359.247 258.283 359.081 258.164 358.874C258.046 358.666 257.986 358.441 257.986 358.197C257.986 357.747 258.158 357.4 258.502 357.157C258.846 356.914 259.315 356.792 259.908 356.792H261.1V356.739C261.1 356.353 260.999 356.063 260.797 355.867C260.596 355.665 260.326 355.564 259.988 355.564C259.697 355.564 259.445 355.639 259.232 355.787C259.024 355.929 258.894 356.14 258.84 356.418H258.075C258.105 356.098 258.212 355.828 258.395 355.609C258.585 355.389 258.819 355.223 259.098 355.111C259.377 354.992 259.673 354.933 259.988 354.933C260.605 354.933 261.067 355.099 261.376 355.431C261.69 355.757 261.847 356.193 261.847 356.739V359.452H261.18L261.135 358.66C261.011 358.909 260.827 359.123 260.584 359.301C260.347 359.473 260.026 359.559 259.623 359.559ZM259.739 358.927C260.023 358.927 260.267 358.853 260.468 358.705C260.676 358.556 260.833 358.364 260.94 358.126C261.046 357.889 261.1 357.64 261.1 357.379V357.37H259.97C259.531 357.37 259.22 357.447 259.036 357.601C258.858 357.75 258.769 357.937 258.769 358.162C258.769 358.393 258.852 358.58 259.018 358.722C259.19 358.859 259.43 358.927 259.739 358.927ZM263.03 359.452V355.671H262.363V355.04H263.03V354.275C263.03 353.848 263.137 353.536 263.35 353.34C263.564 353.145 263.875 353.047 264.285 353.047H264.729V353.687H264.4C264.175 353.687 264.015 353.735 263.92 353.83C263.825 353.919 263.777 354.073 263.777 354.292V355.04H264.863V355.671H263.777V359.452H263.03ZM265.815 359.452V355.671H265.147V355.04H265.815V354.275C265.815 353.848 265.921 353.536 266.135 353.34C266.348 353.145 266.66 353.047 267.069 353.047H267.514V353.687H267.185C266.959 353.687 266.799 353.735 266.704 353.83C266.609 353.919 266.562 354.073 266.562 354.292V355.04H269.302V359.452H268.555V355.671H266.562V359.452H265.815ZM268.937 354.194C268.795 354.194 268.673 354.147 268.572 354.052C268.471 353.951 268.421 353.827 268.421 353.679C268.421 353.536 268.471 353.418 268.572 353.323C268.673 353.228 268.795 353.18 268.937 353.18C269.085 353.18 269.207 353.228 269.302 353.323C269.403 353.418 269.453 353.536 269.453 353.679C269.453 353.827 269.403 353.951 269.302 354.052C269.207 354.147 269.085 354.194 268.937 354.194ZM272.472 359.559C272.051 359.559 271.671 359.464 271.333 359.274C271.001 359.078 270.737 358.808 270.542 358.464C270.352 358.114 270.257 357.708 270.257 357.246C270.257 356.783 270.352 356.38 270.542 356.036C270.737 355.686 271.001 355.416 271.333 355.226C271.671 355.031 272.051 354.933 272.472 354.933C272.994 354.933 273.433 355.069 273.789 355.342C274.15 355.615 274.379 355.98 274.474 356.436H273.709C273.649 356.163 273.504 355.953 273.273 355.805C273.041 355.65 272.771 355.573 272.463 355.573C272.214 355.573 271.98 355.636 271.76 355.76C271.541 355.885 271.363 356.071 271.227 356.321C271.09 356.57 271.022 356.878 271.022 357.246C271.022 357.613 271.09 357.922 271.227 358.171C271.363 358.42 271.541 358.61 271.76 358.74C271.98 358.865 272.214 358.927 272.463 358.927C272.771 358.927 273.041 358.853 273.273 358.705C273.504 358.55 273.649 358.334 273.709 358.055H274.474C274.385 358.5 274.159 358.862 273.797 359.14C273.436 359.419 272.994 359.559 272.472 359.559ZM280.238 359.559C279.656 359.559 279.146 359.425 278.708 359.158C278.269 358.885 277.928 358.509 277.685 358.028C277.441 357.542 277.32 356.982 277.32 356.347C277.32 355.713 277.441 355.152 277.685 354.666C277.934 354.18 278.283 353.8 278.734 353.527C279.191 353.254 279.728 353.118 280.344 353.118C281.044 353.118 281.625 353.287 282.088 353.625C282.556 353.963 282.859 354.429 282.995 355.022H282.132C282.049 354.648 281.851 354.352 281.536 354.132C281.228 353.913 280.831 353.803 280.344 353.803C279.888 353.803 279.49 353.907 279.152 354.114C278.814 354.316 278.55 354.607 278.361 354.986C278.177 355.366 278.085 355.819 278.085 356.347C278.085 356.875 278.177 357.329 278.361 357.708C278.544 358.088 278.799 358.381 279.126 358.589C279.452 358.791 279.831 358.891 280.264 358.891C280.928 358.891 281.43 358.699 281.768 358.313C282.106 357.922 282.298 357.388 282.346 356.712H280.549V356.125H283.111V359.452H282.426L282.364 358.429C282.138 358.791 281.863 359.069 281.536 359.265C281.21 359.461 280.777 359.559 280.238 359.559ZM284.07 359.452V355.04H284.746L284.808 355.885C284.945 355.594 285.152 355.363 285.431 355.191C285.71 355.019 286.054 354.933 286.463 354.933V355.716H286.258C285.998 355.716 285.757 355.763 285.538 355.858C285.318 355.947 285.144 356.101 285.013 356.321C284.883 356.54 284.817 356.842 284.817 357.228V359.452H284.07ZM288.969 359.559C288.554 359.559 288.18 359.464 287.848 359.274C287.516 359.084 287.252 358.817 287.057 358.473C286.867 358.123 286.772 357.714 286.772 357.246C286.772 356.777 286.87 356.371 287.066 356.027C287.261 355.677 287.525 355.407 287.857 355.217C288.195 355.028 288.572 354.933 288.987 354.933C289.402 354.933 289.776 355.028 290.108 355.217C290.44 355.407 290.701 355.677 290.891 356.027C291.086 356.371 291.184 356.777 291.184 357.246C291.184 357.714 291.086 358.123 290.891 358.473C290.695 358.817 290.428 359.084 290.09 359.274C289.758 359.464 289.384 359.559 288.969 359.559ZM288.969 358.918C289.224 358.918 289.461 358.856 289.681 358.731C289.9 358.607 290.078 358.42 290.215 358.171C290.351 357.922 290.419 357.613 290.419 357.246C290.419 356.878 290.351 356.57 290.215 356.321C290.084 356.071 289.909 355.885 289.69 355.76C289.47 355.636 289.236 355.573 288.987 355.573C288.732 355.573 288.495 355.636 288.275 355.76C288.056 355.885 287.878 356.071 287.742 356.321C287.605 356.57 287.537 356.878 287.537 357.246C287.537 357.613 287.605 357.922 287.742 358.171C287.878 358.42 288.053 358.607 288.266 358.731C288.486 358.856 288.72 358.918 288.969 358.918ZM292.77 359.452L291.48 355.04H292.227L293.161 358.5L294.193 355.04H295.038L296.079 358.5L297.004 355.04H297.76L296.47 359.452H295.705L294.62 355.813L293.535 359.452H292.77ZM300.152 359.452C299.749 359.452 299.432 359.354 299.201 359.158C298.969 358.963 298.854 358.61 298.854 358.1V355.671H298.089V355.04H298.854L298.951 353.981H299.601V355.04H300.9V355.671H299.601V358.1C299.601 358.378 299.657 358.568 299.77 358.669C299.883 358.764 300.081 358.811 300.366 358.811H300.828V359.452H300.152ZM301.671 359.452V353.047H302.418V355.796C302.567 355.523 302.777 355.312 303.05 355.164C303.323 355.01 303.619 354.933 303.939 354.933C304.449 354.933 304.859 355.093 305.167 355.413C305.475 355.727 305.63 356.214 305.63 356.872V359.452H304.891V356.952C304.891 356.033 304.521 355.573 303.779 355.573C303.394 355.573 303.071 355.713 302.81 355.991C302.549 356.264 302.418 356.656 302.418 357.166V359.452H301.671Z" fill="#03133D"/>
<path d="M259.954 387.883C258.587 387.883 257.437 387.632 256.503 387.13C255.569 386.629 254.816 385.954 254.246 385.107C253.675 384.259 253.26 383.316 253 382.278C252.758 381.241 252.637 380.177 252.637 379.087C252.637 377.063 252.922 375.308 253.493 373.82C254.064 372.315 254.886 371.156 255.958 370.343C257.03 369.513 258.328 369.098 259.85 369.098C261.095 369.098 262.15 369.349 263.015 369.851C263.897 370.335 264.581 370.975 265.065 371.771C265.549 372.566 265.835 373.422 265.921 374.339H262.834C262.678 373.543 262.341 372.929 261.822 372.497C261.303 372.065 260.637 371.848 259.824 371.848C258.665 371.848 257.731 372.385 257.022 373.457C256.313 374.512 255.932 376.129 255.88 378.309C256.295 377.6 256.918 377.012 257.748 376.545C258.579 376.077 259.504 375.844 260.524 375.844C261.528 375.844 262.47 376.086 263.353 376.57C264.235 377.055 264.944 377.738 265.48 378.62C266.034 379.502 266.31 380.54 266.31 381.734C266.31 382.823 266.042 383.835 265.506 384.769C264.987 385.703 264.243 386.456 263.275 387.027C262.323 387.597 261.216 387.883 259.954 387.883ZM259.772 385.029C260.741 385.029 261.536 384.735 262.159 384.147C262.799 383.541 263.119 382.78 263.119 381.863C263.119 380.895 262.799 380.116 262.159 379.528C261.519 378.94 260.706 378.646 259.72 378.646C259.08 378.646 258.501 378.793 257.982 379.087C257.48 379.364 257.082 379.744 256.788 380.229C256.494 380.696 256.347 381.223 256.347 381.811C256.347 382.746 256.667 383.515 257.307 384.121C257.965 384.726 258.786 385.029 259.772 385.029ZM275.464 387.883C274.218 387.883 273.094 387.667 272.091 387.234C271.088 386.784 270.283 386.153 269.678 385.34C269.09 384.527 268.796 383.584 268.796 382.512C268.796 381.405 269.081 380.436 269.652 379.606C270.24 378.776 271.01 378.179 271.961 377.816C271.131 377.453 270.474 376.934 269.989 376.259C269.505 375.567 269.263 374.797 269.263 373.95C269.263 373.085 269.496 372.289 269.963 371.563C270.43 370.819 271.122 370.222 272.039 369.773C272.973 369.323 274.115 369.098 275.464 369.098C276.813 369.098 277.946 369.323 278.863 369.773C279.779 370.222 280.471 370.819 280.938 371.563C281.405 372.289 281.639 373.085 281.639 373.95C281.639 374.78 281.388 375.55 280.886 376.259C280.402 376.951 279.753 377.47 278.94 377.816C279.909 378.179 280.679 378.776 281.25 379.606C281.82 380.436 282.106 381.405 282.106 382.512C282.106 383.584 281.812 384.527 281.224 385.34C280.636 386.153 279.831 386.784 278.811 387.234C277.807 387.667 276.692 387.883 275.464 387.883ZM275.464 376.83C276.363 376.83 277.072 376.596 277.591 376.129C278.11 375.662 278.37 375.066 278.37 374.339C278.37 373.543 278.11 372.921 277.591 372.471C277.09 372.021 276.38 371.796 275.464 371.796C274.53 371.796 273.812 372.021 273.31 372.471C272.809 372.921 272.558 373.543 272.558 374.339C272.558 375.083 272.809 375.688 273.31 376.155C273.829 376.605 274.547 376.83 275.464 376.83ZM275.464 385.107C276.571 385.107 277.41 384.838 277.98 384.302C278.551 383.749 278.837 383.057 278.837 382.227C278.837 381.31 278.534 380.592 277.929 380.073C277.34 379.554 276.519 379.295 275.464 379.295C274.409 379.295 273.57 379.554 272.947 380.073C272.342 380.592 272.039 381.31 272.039 382.227C272.039 383.057 272.324 383.749 272.895 384.302C273.483 384.838 274.339 385.107 275.464 385.107ZM288.59 378.335C287.76 378.335 287.007 378.153 286.333 377.79C285.658 377.409 285.122 376.873 284.724 376.181C284.326 375.489 284.127 374.668 284.127 373.716C284.127 372.765 284.326 371.943 284.724 371.252C285.122 370.56 285.658 370.032 286.333 369.669C287.007 369.288 287.768 369.098 288.616 369.098C289.446 369.098 290.19 369.288 290.847 369.669C291.522 370.032 292.058 370.56 292.456 371.252C292.854 371.943 293.052 372.765 293.052 373.716C293.052 374.668 292.854 375.489 292.456 376.181C292.058 376.873 291.522 377.409 290.847 377.79C290.172 378.153 289.42 378.335 288.59 378.335ZM287.604 387.571L297.852 369.409H301.096L290.847 387.571H287.604ZM288.59 376.026C289.091 376.026 289.524 375.835 289.887 375.455C290.25 375.057 290.432 374.478 290.432 373.716C290.432 372.955 290.25 372.376 289.887 371.978C289.541 371.58 289.109 371.381 288.59 371.381C288.071 371.381 287.63 371.58 287.267 371.978C286.921 372.376 286.748 372.955 286.748 373.716C286.748 374.478 286.921 375.057 287.267 375.455C287.63 375.835 288.071 376.026 288.59 376.026ZM300.213 387.883C299.383 387.883 298.631 387.701 297.956 387.338C297.282 386.957 296.745 386.421 296.348 385.729C295.95 385.037 295.751 384.216 295.751 383.264C295.751 382.313 295.95 381.5 296.348 380.826C296.745 380.134 297.282 379.606 297.956 379.243C298.631 378.862 299.392 378.672 300.239 378.672C301.07 378.672 301.813 378.862 302.471 379.243C303.145 379.606 303.682 380.134 304.079 380.826C304.477 381.5 304.676 382.313 304.676 383.264C304.676 384.216 304.477 385.037 304.079 385.729C303.682 386.421 303.145 386.957 302.471 387.338C301.813 387.701 301.061 387.883 300.213 387.883ZM300.213 385.574C300.732 385.574 301.165 385.383 301.511 385.003C301.874 384.605 302.056 384.026 302.056 383.264C302.056 382.503 301.874 381.924 301.511 381.526C301.165 381.128 300.732 380.929 300.213 380.929C299.695 380.929 299.253 381.128 298.89 381.526C298.544 381.924 298.371 382.503 298.371 383.264C298.371 384.026 298.544 384.605 298.89 385.003C299.253 385.383 299.695 385.574 300.213 385.574Z" fill="#03133D"/>
<g filter="url(#filter1_d_301_912)">
<rect x="131.572" y="487" width="140" height="62.0189" rx="8" fill="white"/>
</g>
<rect x="142.572" y="498.491" width="55.782" height="6" rx="3" fill="#C4D2F6"/>
<rect x="141.572" y="517.07" width="117" height="6" rx="3" fill="#EDF1FC"/>
<rect x="142.572" y="533.769" width="117" height="6" rx="3" fill="#EDF1FC"/>
<g filter="url(#filter2_d_301_912)">
<rect x="285.572" y="487" width="140" height="62.0189" rx="8" fill="white"/>
</g>
<rect x="296.572" y="498.491" width="55.782" height="6" rx="3" fill="#C4D2F6"/>
<rect x="295.572" y="517.07" width="117" height="6" rx="3" fill="#EDF1FC"/>
<rect x="296.572" y="533.769" width="117" height="6" rx="3" fill="#EDF1FC"/>
<g filter="url(#filter3_d_301_912)">
<rect x="375.139" y="111" width="199.645" height="228" rx="10" fill="white"/>
</g>
<g filter="url(#filter4_d_301_912)">
<rect x="398.576" y="297" width="157.719" height="23.2761" rx="11.6381" fill="white"/>
</g>
<rect x="411.473" y="305.729" width="127.773" height="5.81906" rx="2.90953" fill="#EDF1FC"/>
<g filter="url(#filter5_d_301_912)">
<rect x="437.576" y="250" width="169.698" height="26.1857" rx="13.0928" fill="white"/>
</g>
<rect x="452.549" y="260.668" width="139.751" height="5.81903" rx="2.90952" fill="#0097FE"/>
<path d="M396.152 143.138C395.56 143.138 395.045 143.031 394.607 142.815C394.168 142.6 393.83 142.3 393.592 141.916C393.353 141.531 393.234 141.085 393.234 140.578H394.249C394.249 140.893 394.322 141.185 394.468 141.454C394.614 141.716 394.826 141.927 395.103 142.089C395.387 142.243 395.737 142.319 396.152 142.319C396.698 142.319 397.121 142.189 397.421 141.927C397.721 141.666 397.871 141.339 397.871 140.947C397.871 140.624 397.802 140.366 397.664 140.174C397.525 139.974 397.337 139.812 397.098 139.689C396.868 139.566 396.598 139.459 396.291 139.366C395.991 139.274 395.676 139.17 395.345 139.055C394.722 138.84 394.261 138.574 393.961 138.259C393.661 137.936 393.511 137.517 393.511 137.002C393.503 136.571 393.603 136.191 393.811 135.86C394.018 135.521 394.311 135.26 394.688 135.075C395.072 134.883 395.526 134.787 396.049 134.787C396.564 134.787 397.01 134.883 397.387 135.075C397.771 135.268 398.067 135.533 398.275 135.871C398.49 136.21 398.602 136.594 398.609 137.025H397.594C397.594 136.802 397.537 136.583 397.421 136.367C397.306 136.144 397.129 135.964 396.891 135.825C396.66 135.687 396.368 135.618 396.014 135.618C395.576 135.61 395.214 135.721 394.93 135.952C394.653 136.183 394.514 136.502 394.514 136.91C394.514 137.256 394.611 137.521 394.803 137.705C395.003 137.89 395.28 138.044 395.633 138.167C395.987 138.282 396.395 138.417 396.856 138.571C397.241 138.709 397.587 138.87 397.894 139.055C398.202 139.24 398.44 139.478 398.609 139.77C398.786 140.062 398.875 140.435 398.875 140.889C398.875 141.274 398.775 141.639 398.575 141.985C398.375 142.323 398.071 142.6 397.664 142.815C397.264 143.031 396.76 143.138 396.152 143.138ZM401.864 143.138C401.387 143.138 400.991 143.058 400.676 142.896C400.36 142.735 400.126 142.519 399.972 142.25C399.818 141.981 399.741 141.689 399.741 141.374C399.741 140.789 399.964 140.339 400.41 140.024C400.856 139.709 401.464 139.551 402.233 139.551H403.779V139.482C403.779 138.982 403.648 138.605 403.386 138.351C403.125 138.09 402.775 137.959 402.337 137.959C401.96 137.959 401.633 138.055 401.356 138.248C401.087 138.432 400.918 138.705 400.849 139.067H399.857C399.895 138.651 400.034 138.301 400.272 138.017C400.518 137.732 400.822 137.517 401.183 137.371C401.545 137.217 401.929 137.14 402.337 137.14C403.136 137.14 403.736 137.356 404.136 137.786C404.544 138.209 404.747 138.774 404.747 139.482V143H403.882L403.825 141.973C403.663 142.296 403.425 142.573 403.11 142.804C402.802 143.027 402.387 143.138 401.864 143.138ZM402.014 142.319C402.383 142.319 402.698 142.223 402.96 142.031C403.229 141.839 403.432 141.589 403.571 141.281C403.709 140.974 403.779 140.651 403.779 140.312V140.301H402.314C401.745 140.301 401.341 140.401 401.102 140.601C400.872 140.793 400.756 141.035 400.756 141.327C400.756 141.627 400.864 141.87 401.079 142.054C401.302 142.231 401.614 142.319 402.014 142.319ZM405.97 143V134.695H406.939V143H405.97ZM410.869 143.138C410.323 143.138 409.839 143.015 409.416 142.769C408.993 142.516 408.658 142.166 408.412 141.72C408.174 141.274 408.055 140.747 408.055 140.139C408.055 139.539 408.174 139.017 408.412 138.571C408.65 138.117 408.981 137.767 409.404 137.521C409.835 137.267 410.331 137.14 410.892 137.14C411.446 137.14 411.923 137.267 412.322 137.521C412.73 137.767 413.041 138.094 413.257 138.501C413.472 138.909 413.58 139.347 413.58 139.816C413.58 139.901 413.576 139.986 413.568 140.07C413.568 140.155 413.568 140.251 413.568 140.358H409.012C409.035 140.797 409.135 141.162 409.312 141.454C409.496 141.739 409.723 141.954 409.992 142.1C410.269 142.246 410.561 142.319 410.869 142.319C411.269 142.319 411.603 142.227 411.873 142.043C412.142 141.858 412.338 141.608 412.461 141.293H413.418C413.264 141.823 412.968 142.266 412.53 142.619C412.099 142.965 411.546 143.138 410.869 143.138ZM410.869 137.959C410.408 137.959 409.996 138.101 409.635 138.386C409.281 138.663 409.077 139.07 409.023 139.609H412.622C412.599 139.093 412.422 138.69 412.092 138.398C411.761 138.105 411.354 137.959 410.869 137.959ZM416.825 143.138C416.141 143.138 415.572 142.965 415.118 142.619C414.664 142.273 414.399 141.804 414.322 141.212H415.314C415.375 141.512 415.533 141.773 415.787 141.996C416.048 142.212 416.398 142.319 416.837 142.319C417.244 142.319 417.544 142.235 417.736 142.066C417.929 141.889 418.025 141.681 418.025 141.443C418.025 141.097 417.898 140.866 417.644 140.751C417.398 140.635 417.048 140.532 416.594 140.439C416.287 140.378 415.979 140.289 415.671 140.174C415.364 140.059 415.106 139.897 414.899 139.689C414.691 139.474 414.587 139.193 414.587 138.847C414.587 138.348 414.772 137.94 415.141 137.625C415.518 137.302 416.025 137.14 416.664 137.14C417.271 137.14 417.767 137.294 418.152 137.602C418.544 137.902 418.771 138.332 418.832 138.894H417.875C417.836 138.601 417.709 138.374 417.494 138.213C417.286 138.044 417.006 137.959 416.652 137.959C416.306 137.959 416.037 138.032 415.845 138.178C415.66 138.324 415.568 138.517 415.568 138.755C415.568 138.986 415.687 139.167 415.925 139.297C416.171 139.428 416.502 139.539 416.917 139.632C417.271 139.709 417.606 139.805 417.921 139.92C418.244 140.028 418.505 140.193 418.705 140.416C418.913 140.631 419.017 140.947 419.017 141.362C419.024 141.877 418.828 142.304 418.428 142.642C418.036 142.973 417.502 143.138 416.825 143.138ZM425.253 143C424.73 143 424.319 142.873 424.019 142.619C423.719 142.366 423.569 141.908 423.569 141.247V138.098H422.577V137.279H423.569L423.696 135.906H424.538V137.279H426.222V138.098H424.538V141.247C424.538 141.608 424.611 141.854 424.757 141.985C424.903 142.108 425.161 142.169 425.53 142.169H426.13V143H425.253ZM427.222 143V137.279H428.099L428.18 138.374C428.357 137.998 428.626 137.698 428.987 137.475C429.349 137.252 429.795 137.14 430.325 137.14V138.155H430.06C429.722 138.155 429.41 138.217 429.126 138.34C428.841 138.455 428.614 138.655 428.445 138.94C428.276 139.224 428.191 139.616 428.191 140.116V143H427.222ZM433.54 143.138C432.994 143.138 432.51 143.015 432.087 142.769C431.664 142.516 431.329 142.166 431.083 141.72C430.845 141.274 430.726 140.747 430.726 140.139C430.726 139.539 430.845 139.017 431.083 138.571C431.322 138.117 431.652 137.767 432.075 137.521C432.506 137.267 433.002 137.14 433.563 137.14C434.117 137.14 434.594 137.267 434.994 137.521C435.401 137.767 435.713 138.094 435.928 138.501C436.143 138.909 436.251 139.347 436.251 139.816C436.251 139.901 436.247 139.986 436.239 140.07C436.239 140.155 436.239 140.251 436.239 140.358H431.683C431.706 140.797 431.806 141.162 431.983 141.454C432.168 141.739 432.394 141.954 432.664 142.1C432.94 142.246 433.233 142.319 433.54 142.319C433.94 142.319 434.275 142.227 434.544 142.043C434.813 141.858 435.009 141.608 435.132 141.293H436.09C435.936 141.823 435.64 142.266 435.201 142.619C434.771 142.965 434.217 143.138 433.54 143.138ZM433.54 137.959C433.079 137.959 432.667 138.101 432.306 138.386C431.952 138.663 431.749 139.07 431.695 139.609H435.294C435.271 139.093 435.094 138.69 434.763 138.398C434.432 138.105 434.025 137.959 433.54 137.959ZM437.305 143V137.279H438.181L438.239 138.305C438.423 137.944 438.689 137.659 439.035 137.452C439.381 137.244 439.773 137.14 440.211 137.14C440.888 137.14 441.426 137.348 441.826 137.763C442.234 138.171 442.438 138.801 442.438 139.655V143H441.469V139.759C441.469 138.567 440.977 137.971 439.992 137.971C439.5 137.971 439.089 138.151 438.758 138.513C438.435 138.867 438.274 139.374 438.274 140.036V143H437.305ZM446.27 143.138C445.701 143.138 445.201 143.008 444.771 142.746C444.348 142.485 444.017 142.127 443.779 141.673C443.548 141.22 443.433 140.705 443.433 140.128C443.433 139.551 443.552 139.04 443.79 138.594C444.029 138.14 444.359 137.786 444.782 137.532C445.205 137.271 445.705 137.14 446.282 137.14C446.751 137.14 447.166 137.236 447.528 137.429C447.889 137.621 448.17 137.89 448.37 138.236V134.695H449.339V143H448.462L448.37 142.054C448.185 142.331 447.92 142.581 447.574 142.804C447.228 143.027 446.793 143.138 446.27 143.138ZM446.374 142.296C446.759 142.296 447.097 142.208 447.389 142.031C447.689 141.846 447.92 141.593 448.081 141.27C448.251 140.947 448.335 140.57 448.335 140.139C448.335 139.709 448.251 139.332 448.081 139.009C447.92 138.686 447.689 138.436 447.389 138.259C447.097 138.075 446.759 137.982 446.374 137.982C445.997 137.982 445.659 138.075 445.359 138.259C445.067 138.436 444.836 138.686 444.667 139.009C444.505 139.332 444.425 139.709 444.425 140.139C444.425 140.57 444.505 140.947 444.667 141.27C444.836 141.593 445.067 141.846 445.359 142.031C445.659 142.208 445.997 142.296 446.374 142.296Z" fill="#68718B"/>
<path d="M403.165 180.378C401.504 180.378 400.106 180.074 398.97 179.464C397.835 178.854 396.921 178.034 396.227 177.004C395.533 175.974 395.029 174.828 394.713 173.567C394.419 172.305 394.272 171.013 394.272 169.688C394.272 167.228 394.619 165.094 395.312 163.286C396.006 161.457 397.005 160.049 398.308 159.061C399.612 158.052 401.188 157.547 403.039 157.547C404.552 157.547 405.835 157.852 406.886 158.462C407.958 159.05 408.788 159.828 409.377 160.795C409.966 161.762 410.313 162.803 410.418 163.917H406.665C406.476 162.95 406.066 162.204 405.435 161.678C404.804 161.153 403.995 160.89 403.007 160.89C401.598 160.89 400.463 161.542 399.601 162.845C398.739 164.127 398.277 166.093 398.214 168.742C398.718 167.88 399.475 167.165 400.484 166.598C401.493 166.03 402.618 165.746 403.858 165.746C405.078 165.746 406.224 166.041 407.296 166.629C408.368 167.218 409.23 168.048 409.882 169.12C410.554 170.193 410.891 171.454 410.891 172.905C410.891 174.229 410.565 175.459 409.913 176.594C409.282 177.729 408.378 178.644 407.201 179.338C406.045 180.032 404.699 180.378 403.165 180.378ZM402.944 176.91C404.121 176.91 405.088 176.552 405.845 175.837C406.623 175.102 407.012 174.177 407.012 173.062C407.012 171.885 406.623 170.939 405.845 170.224C405.067 169.509 404.079 169.152 402.881 169.152C402.103 169.152 401.399 169.331 400.768 169.688C400.158 170.024 399.675 170.487 399.317 171.076C398.96 171.643 398.781 172.284 398.781 172.999C398.781 174.134 399.17 175.07 399.948 175.806C400.747 176.542 401.746 176.91 402.944 176.91ZM422.016 180.378C420.502 180.378 419.136 180.116 417.916 179.59C416.697 179.043 415.719 178.276 414.984 177.288C414.269 176.3 413.911 175.154 413.911 173.851C413.911 172.505 414.258 171.328 414.952 170.319C415.667 169.31 416.602 168.584 417.759 168.143C416.75 167.701 415.951 167.071 415.362 166.251C414.773 165.41 414.479 164.474 414.479 163.444C414.479 162.393 414.763 161.426 415.331 160.543C415.898 159.639 416.739 158.914 417.853 158.367C418.989 157.82 420.376 157.547 422.016 157.547C423.656 157.547 425.033 157.82 426.147 158.367C427.261 158.914 428.102 159.639 428.67 160.543C429.237 161.426 429.521 162.393 429.521 163.444C429.521 164.453 429.216 165.389 428.607 166.251C428.018 167.092 427.23 167.722 426.242 168.143C427.419 168.584 428.354 169.31 429.048 170.319C429.742 171.328 430.089 172.505 430.089 173.851C430.089 175.154 429.731 176.3 429.017 177.288C428.302 178.276 427.324 179.043 426.084 179.59C424.865 180.116 423.509 180.378 422.016 180.378ZM422.016 166.945C423.109 166.945 423.971 166.661 424.602 166.093C425.233 165.525 425.548 164.8 425.548 163.917C425.548 162.95 425.233 162.193 424.602 161.647C423.992 161.1 423.13 160.827 422.016 160.827C420.881 160.827 420.008 161.1 419.399 161.647C418.789 162.193 418.484 162.95 418.484 163.917C418.484 164.821 418.789 165.557 419.399 166.125C420.029 166.671 420.902 166.945 422.016 166.945ZM422.016 177.004C423.361 177.004 424.381 176.678 425.075 176.027C425.769 175.354 426.115 174.513 426.115 173.504C426.115 172.39 425.748 171.517 425.012 170.886C424.297 170.256 423.298 169.94 422.016 169.94C420.734 169.94 419.714 170.256 418.957 170.886C418.221 171.517 417.853 172.39 417.853 173.504C417.853 174.513 418.2 175.354 418.894 176.027C419.609 176.678 420.649 177.004 422.016 177.004ZM437.97 168.774C436.961 168.774 436.046 168.553 435.226 168.111C434.406 167.649 433.755 166.997 433.271 166.156C432.787 165.315 432.546 164.317 432.546 163.16C432.546 162.004 432.787 161.005 433.271 160.164C433.755 159.324 434.406 158.682 435.226 158.241C436.046 157.778 436.971 157.547 438.001 157.547C439.01 157.547 439.914 157.778 440.713 158.241C441.533 158.682 442.185 159.324 442.668 160.164C443.152 161.005 443.394 162.004 443.394 163.16C443.394 164.317 443.152 165.315 442.668 166.156C442.185 166.997 441.533 167.649 440.713 168.111C439.893 168.553 438.979 168.774 437.97 168.774ZM436.771 180L449.228 157.925H453.17L440.713 180H436.771ZM437.97 165.967C438.579 165.967 439.105 165.736 439.546 165.273C439.988 164.79 440.209 164.085 440.209 163.16C440.209 162.235 439.988 161.531 439.546 161.047C439.126 160.564 438.6 160.322 437.97 160.322C437.339 160.322 436.803 160.564 436.361 161.047C435.941 161.531 435.731 162.235 435.731 163.16C435.731 164.085 435.941 164.79 436.361 165.273C436.803 165.736 437.339 165.967 437.97 165.967ZM452.097 180.378C451.088 180.378 450.174 180.158 449.354 179.716C448.534 179.254 447.882 178.602 447.399 177.761C446.915 176.92 446.673 175.921 446.673 174.765C446.673 173.609 446.915 172.621 447.399 171.801C447.882 170.96 448.534 170.319 449.354 169.877C450.174 169.415 451.099 169.183 452.129 169.183C453.138 169.183 454.042 169.415 454.841 169.877C455.661 170.319 456.313 170.96 456.796 171.801C457.28 172.621 457.521 173.609 457.521 174.765C457.521 175.921 457.28 176.92 456.796 177.761C456.313 178.602 455.661 179.254 454.841 179.716C454.042 180.158 453.128 180.378 452.097 180.378ZM452.097 177.572C452.728 177.572 453.254 177.341 453.674 176.878C454.116 176.394 454.336 175.69 454.336 174.765C454.336 173.84 454.116 173.136 453.674 172.652C453.254 172.169 452.728 171.927 452.097 171.927C451.467 171.927 450.931 172.169 450.489 172.652C450.069 173.136 449.858 173.84 449.858 174.765C449.858 175.69 450.069 176.394 450.489 176.878C450.931 177.341 451.467 177.572 452.097 177.572Z" fill="#03133D"/>
<path d="M398.576 240.182C417.787 240.182 415.517 203.967 434.728 203.967C453.939 203.967 451.665 213.624 470.876 213.624C490.087 213.624 487.128 229.49 506.339 229.49C525.55 229.49 528.804 237.64 548.015 237.64" stroke="#FFAE00" stroke-width="2.0694" stroke-linecap="round"/>
<path d="M398.576 240.182C417.346 240.182 419.744 215.004 438.514 215.004C457.285 215.004 454.173 195 472.943 195C491.714 195 491.355 223.282 510.125 223.282C528.896 223.282 529.915 237.536 548.686 237.536" stroke="#0097FE" stroke-width="2.0694" stroke-linecap="round"/>
<path d="M109.611 120H173.466V145.752H275.316V172" stroke="#0097FE" stroke-width="2" stroke-linecap="round" stroke-linejoin="round" stroke-dasharray="4 5"/>
<g filter="url(#filter6_d_301_912)">
<rect x="45.7249" y="90" width="63.8863" height="64" rx="10" fill="white"/>
</g>
<g clip-path="url(#clip0_301_912)">
<path d="M89.6468 106H65.6894C63.4867 106 61.6965 107.793 61.6965 110V134C61.6965 136.205 63.4867 138 65.6894 138H89.6468C91.8482 138 93.6397 136.205 93.6397 134V110C93.6397 107.793 91.8482 106 89.6468 106Z" fill="#3B5999"/>
<path d="M83.6575 122V118C83.6575 116.896 84.5519 117 85.654 117H87.6504V112H83.6575C80.3488 112 77.6682 114.685 77.6682 118V122H73.6753V127H77.6682V138H83.6575V127H86.6522L88.6486 122H83.6575Z" fill="white"/>
</g>
<path d="M363.16 68H313.249V173" stroke="#0097FE" stroke-width="2" stroke-linecap="round" stroke-linejoin="round" stroke-dasharray="4 5"/>
<g filter="url(#filter7_d_301_912)">
<rect x="363.16" y="36" width="63.8863" height="64" rx="10" fill="white"/>
</g>
<g clip-path="url(#clip1_301_912)">
<path d="M407.816 62.3319C407.816 62.0426 407.806 61.7613 407.792 61.4839C409.091 60.5599 410.184 59.4066 411.075 58.0786V58.0773C409.886 58.5986 408.622 58.9453 407.301 59.1133C408.659 58.3013 409.696 57.0253 410.183 55.4879C408.917 56.2439 407.519 56.7773 406.03 57.0759C404.828 55.7933 403.115 54.9999 401.247 54.9999C397.621 54.9999 394.702 57.9479 394.702 61.5613C394.702 62.0813 394.746 62.5813 394.854 63.0573C389.41 62.7906 384.592 60.1773 381.355 56.1946C380.791 57.1773 380.458 58.3013 380.458 59.5106C380.458 61.7826 381.626 63.7959 383.368 64.9626C382.315 64.9426 381.284 64.6359 380.409 64.1546V64.2266C380.409 67.4146 382.678 70.0626 385.656 70.6733C384.655 70.9479 383.422 70.9373 382.7 70.7773C383.547 73.3746 385.957 75.2853 388.818 75.3479C386.59 77.0933 383.76 78.1453 380.698 78.1453C380.162 78.1453 379.646 78.1213 379.131 78.0559C382.033 79.9293 385.469 80.9999 389.177 80.9999C401.228 80.9999 407.816 70.9999 407.816 62.3319Z" fill="#55ACEE"/>
</g>
<path d="M433.036 438H496.922" stroke="#0097FE" stroke-width="1.5" stroke-linecap="round" stroke-linejoin="round" stroke-dasharray="4 5"/>
<g filter="url(#filter8_d_301_912)">
<rect x="496.922" y="402" width="63.8863" height="64" rx="10" fill="white"/>
</g>
<g clip-path="url(#clip2_301_912)">
<path d="M540.838 446V445.999H540.844V437.197C540.844 432.891 539.918 429.574 534.893 429.574C532.477 429.574 530.856 430.902 530.195 432.161H530.125V429.976H525.36V445.999H530.321V438.065C530.321 435.976 530.717 433.956 533.299 433.956C535.843 433.956 535.881 436.34 535.881 438.199V446H540.838Z" fill="#0077B5"/>
<path d="M517.281 429.977H522.248V446H517.281V429.977Z" fill="#0077B5"/>
<path d="M519.763 422C518.175 422 516.886 423.291 516.886 424.882C516.886 426.473 518.175 427.791 519.763 427.791C521.351 427.791 522.64 426.473 522.64 424.882C522.639 423.291 521.35 422 519.763 422V422Z" fill="#0077B5"/>
</g>
<path d="M166.51 553V601H108.613" stroke="#0097FE" stroke-width="2" stroke-linecap="round" stroke-linejoin="round" stroke-dasharray="4 5"/>
<g filter="url(#filter9_d_301_912)">
<rect x="44.7266" y="569" width="63.8863" height="64" rx="10" fill="white"/>
</g>
<g clip-path="url(#clip3_301_912)">
<path d="M62.6941 587.177C60.1839 589.789 60.6977 592.564 60.6977 600.993C60.6977 607.993 59.4785 615.01 65.8592 616.662C67.8516 617.176 85.5055 617.176 87.4953 616.66C90.1519 615.973 92.3134 613.814 92.6089 610.05C92.6502 609.525 92.6502 592.47 92.6076 591.934C92.2935 587.925 89.8299 585.614 86.5836 585.146C85.8396 585.038 85.6906 585.006 81.8733 585C68.3334 585.006 65.3654 584.402 62.6941 587.177Z" fill="url(#paint0_linear_301_912)"/>
<path d="M76.6674 589.185C71.8347 589.185 67.2455 588.755 65.4926 593.261C64.7686 595.123 64.8737 597.54 64.8737 601.001C64.8737 604.039 64.7766 606.893 65.4926 608.74C67.2415 613.249 71.868 612.817 76.6648 612.817C81.2925 612.817 86.064 613.3 87.8382 608.74C88.5636 606.86 88.4571 604.479 88.4571 601.001C88.4571 596.385 88.7113 593.405 86.4766 591.168C84.214 588.901 81.1541 589.185 76.6621 589.185H76.6674ZM75.6106 591.315C85.6914 591.299 86.9744 590.176 86.2663 605.772C86.0148 611.288 81.8222 610.683 76.6687 610.683C67.2721 610.683 67.0019 610.413 67.0019 600.996C67.0019 591.469 67.7473 591.32 75.6106 591.312V591.315ZM82.9629 593.276C82.1816 593.276 81.5481 593.911 81.5481 594.693C81.5481 595.476 82.1816 596.111 82.9629 596.111C83.7442 596.111 84.3777 595.476 84.3777 594.693C84.3777 593.911 83.7442 593.276 82.9629 593.276ZM76.6674 594.933C73.3227 594.933 70.6115 597.651 70.6115 601.001C70.6115 604.352 73.3227 607.068 76.6674 607.068C80.0121 607.068 82.722 604.352 82.722 601.001C82.722 597.651 80.0121 594.933 76.6674 594.933ZM76.6674 597.063C81.8648 597.063 81.8715 604.94 76.6674 604.94C71.4713 604.94 71.4633 597.063 76.6674 597.063Z" fill="white"/>
</g>
<defs>
<filter id="filter0_d_301_912" x="50.7266" y="118" width="487" height="560" filterUnits="userSpaceOnUse" color-interpolation-filters="sRGB">
<feFlood flood-opacity="0" result="BackgroundImageFix"/>
<feColorMatrix in="SourceAlpha" type="matrix" values="0 0 0 0 0 0 0 0 0 0 0 0 0 0 0 0 0 0 127 0" result="hardAlpha"/>
<feOffset dx="16" dy="32"/>
<feGaussianBlur stdDeviation="37"/>
<feComposite in2="hardAlpha" operator="out"/>
<feColorMatrix type="matrix" values="0 0 0 0 0.495833 0 0 0 0 0.542422 0 0 0 0 0.991667 0 0 0 0.08 0"/>
<feBlend mode="normal" in2="BackgroundImageFix" result="effect1_dropShadow_301_912"/>
<feBlend mode="normal" in="SourceGraphic" in2="effect1_dropShadow_301_912" result="shape"/>
</filter>
<filter id="filter1_d_301_912" x="115.093" y="475.465" width="172.957" height="94.9761" filterUnits="userSpaceOnUse" color-interpolation-filters="sRGB">
<feFlood flood-opacity="0" result="BackgroundImageFix"/>
<feColorMatrix in="SourceAlpha" type="matrix" values="0 0 0 0 0 0 0 0 0 0 0 0 0 0 0 0 0 0 127 0" result="hardAlpha"/>
<feOffset dy="4.94357"/>
<feGaussianBlur stdDeviation="8.23929"/>
<feColorMatrix type="matrix" values="0 0 0 0 0.11 0 0 0 0 0.14137 0 0 0 0 0.4125 0 0 0 0.05 0"/>
<feBlend mode="normal" in2="BackgroundImageFix" result="effect1_dropShadow_301_912"/>
<feBlend mode="normal" in="SourceGraphic" in2="effect1_dropShadow_301_912" result="shape"/>
</filter>
<filter id="filter2_d_301_912" x="269.093" y="475.465" width="172.957" height="94.9761" filterUnits="userSpaceOnUse" color-interpolation-filters="sRGB">
<feFlood flood-opacity="0" result="BackgroundImageFix"/>
<feColorMatrix in="SourceAlpha" type="matrix" values="0 0 0 0 0 0 0 0 0 0 0 0 0 0 0 0 0 0 127 0" result="hardAlpha"/>
<feOffset dy="4.94357"/>
<feGaussianBlur stdDeviation="8.23929"/>
<feColorMatrix type="matrix" values="0 0 0 0 0.11 0 0 0 0 0.14137 0 0 0 0 0.4125 0 0 0 0.05 0"/>
<feBlend mode="normal" in2="BackgroundImageFix" result="effect1_dropShadow_301_912"/>
<feBlend mode="normal" in="SourceGraphic" in2="effect1_dropShadow_301_912" result="shape"/>
</filter>
<filter id="filter3_d_301_912" x="287.139" y="39" width="391.645" height="420" filterUnits="userSpaceOnUse" color-interpolation-filters="sRGB">
<feFlood flood-opacity="0" result="BackgroundImageFix"/>
<feColorMatrix in="SourceAlpha" type="matrix" values="0 0 0 0 0 0 0 0 0 0 0 0 0 0 0 0 0 0 127 0" result="hardAlpha"/>
<feOffset dx="8" dy="24"/>
<feGaussianBlur stdDeviation="48"/>
<feComposite in2="hardAlpha" operator="out"/>
<feColorMatrix type="matrix" values="0 0 0 0 0.494118 0 0 0 0 0.541176 0 0 0 0 0.992157 0 0 0 0.08 0"/>
<feBlend mode="normal" in2="BackgroundImageFix" result="effect1_dropShadow_301_912"/>
<feBlend mode="normal" in="SourceGraphic" in2="effect1_dropShadow_301_912" result="shape"/>
</filter>
<filter id="filter4_d_301_912" x="382.097" y="285.465" width="190.676" height="56.2333" filterUnits="userSpaceOnUse" color-interpolation-filters="sRGB">
<feFlood flood-opacity="0" result="BackgroundImageFix"/>
<feColorMatrix in="SourceAlpha" type="matrix" values="0 0 0 0 0 0 0 0 0 0 0 0 0 0 0 0 0 0 127 0" result="hardAlpha"/>
<feOffset dy="4.94357"/>
<feGaussianBlur stdDeviation="8.23929"/>
<feColorMatrix type="matrix" values="0 0 0 0 0.11 0 0 0 0 0.14137 0 0 0 0 0.4125 0 0 0 0.05 0"/>
<feBlend mode="normal" in2="BackgroundImageFix" result="effect1_dropShadow_301_912"/>
<feBlend mode="normal" in="SourceGraphic" in2="effect1_dropShadow_301_912" result="shape"/>
</filter>
<filter id="filter5_d_301_912" x="417.576" y="234" width="209.698" height="66.1857" filterUnits="userSpaceOnUse" color-interpolation-filters="sRGB">
<feFlood flood-opacity="0" result="BackgroundImageFix"/>
<feColorMatrix in="SourceAlpha" type="matrix" values="0 0 0 0 0 0 0 0 0 0 0 0 0 0 0 0 0 0 127 0" result="hardAlpha"/>
<feOffset dy="4"/>
<feGaussianBlur stdDeviation="10"/>
<feColorMatrix type="matrix" values="0 0 0 0 0.14902 0 0 0 0 0.14902 0 0 0 0 0.14902 0 0 0 0.04 0"/>
<feBlend mode="normal" in2="BackgroundImageFix" result="effect1_dropShadow_301_912"/>
<feBlend mode="normal" in="SourceGraphic" in2="effect1_dropShadow_301_912" result="shape"/>
</filter>
<filter id="filter6_d_301_912" x="1.72485" y="54" width="167.886" height="168" filterUnits="userSpaceOnUse" color-interpolation-filters="sRGB">
<feFlood flood-opacity="0" result="BackgroundImageFix"/>
<feColorMatrix in="SourceAlpha" type="matrix" values="0 0 0 0 0 0 0 0 0 0 0 0 0 0 0 0 0 0 127 0" result="hardAlpha"/>
<feOffset dx="8" dy="16"/>
<feGaussianBlur stdDeviation="26"/>
<feColorMatrix type="matrix" values="0 0 0 0 0.494118 0 0 0 0 0.541176 0 0 0 0 0.992157 0 0 0 0.08 0"/>
<feBlend mode="normal" in2="BackgroundImageFix" result="effect1_dropShadow_301_912"/>
<feBlend mode="normal" in="SourceGraphic" in2="effect1_dropShadow_301_912" result="shape"/>
</filter>
<filter id="filter7_d_301_912" x="319.16" y="0" width="167.886" height="168" filterUnits="userSpaceOnUse" color-interpolation-filters="sRGB">
<feFlood flood-opacity="0" result="BackgroundImageFix"/>
<feColorMatrix in="SourceAlpha" type="matrix" values="0 0 0 0 0 0 0 0 0 0 0 0 0 0 0 0 0 0 127 0" result="hardAlpha"/>
<feOffset dx="8" dy="16"/>
<feGaussianBlur stdDeviation="26"/>
<feColorMatrix type="matrix" values="0 0 0 0 0.494118 0 0 0 0 0.541176 0 0 0 0 0.992157 0 0 0 0.08 0"/>
<feBlend mode="normal" in2="BackgroundImageFix" result="effect1_dropShadow_301_912"/>
<feBlend mode="normal" in="SourceGraphic" in2="effect1_dropShadow_301_912" result="shape"/>
</filter>
<filter id="filter8_d_301_912" x="452.922" y="366" width="167.886" height="168" filterUnits="userSpaceOnUse" color-interpolation-filters="sRGB">
<feFlood flood-opacity="0" result="BackgroundImageFix"/>
<feColorMatrix in="SourceAlpha" type="matrix" values="0 0 0 0 0 0 0 0 0 0 0 0 0 0 0 0 0 0 127 0" result="hardAlpha"/>
<feOffset dx="8" dy="16"/>
<feGaussianBlur stdDeviation="26"/>
<feColorMatrix type="matrix" values="0 0 0 0 0.494118 0 0 0 0 0.541176 0 0 0 0 0.992157 0 0 0 0.08 0"/>
<feBlend mode="normal" in2="BackgroundImageFix" result="effect1_dropShadow_301_912"/>
<feBlend mode="normal" in="SourceGraphic" in2="effect1_dropShadow_301_912" result="shape"/>
</filter>
<filter id="filter9_d_301_912" x="0.726562" y="533" width="167.886" height="168" filterUnits="userSpaceOnUse" color-interpolation-filters="sRGB">
<feFlood flood-opacity="0" result="BackgroundImageFix"/>
<feColorMatrix in="SourceAlpha" type="matrix" values="0 0 0 0 0 0 0 0 0 0 0 0 0 0 0 0 0 0 127 0" result="hardAlpha"/>
<feOffset dx="8" dy="16"/>
<feGaussianBlur stdDeviation="26"/>
<feColorMatrix type="matrix" values="0 0 0 0 0.494118 0 0 0 0 0.541176 0 0 0 0 0.992157 0 0 0 0.08 0"/>
<feBlend mode="normal" in2="BackgroundImageFix" result="effect1_dropShadow_301_912"/>
<feBlend mode="normal" in="SourceGraphic" in2="effect1_dropShadow_301_912" result="shape"/>
</filter>
<linearGradient id="paint0_linear_301_912" x1="62.7554" y1="614.956" x2="92.4884" y2="589.268" gradientUnits="userSpaceOnUse">
<stop stop-color="#FFDD55"/>
<stop offset="0.5" stop-color="#FF543E"/>
<stop offset="1" stop-color="#C837AB"/>
</linearGradient>
<clipPath id="clip0_301_912">
<rect width="31.9432" height="32" fill="white" transform="translate(61.6965 106)"/>
</clipPath>
<clipPath id="clip1_301_912">
<rect width="31.9432" height="32" fill="white" transform="translate(379.131 51.9999)"/>
</clipPath>
<clipPath id="clip2_301_912">
<rect width="23.9574" height="24" fill="white" transform="translate(516.886 422)"/>
</clipPath>
<clipPath id="clip3_301_912">
<rect width="31.9432" height="32" fill="white" transform="translate(60.6985 585)"/>
</clipPath>
</defs>
</svg>
